<svg width="18" height="20" viewBox="0 0 18 20" fill="none" xmlns="http://www.w3.org/2000/svg">
<path d="M14.1026 6.84165C14.0342 6.76355 13.9528 6.70155 13.8632 6.65924C13.7736 6.61694 13.6774 6.59515 13.5803 6.59515C13.4832 6.59515 13.3871 6.61694 13.2974 6.65924C13.2078 6.70155 13.1264 6.76355 13.058 6.84165L9.689 10.6583C9.62062 10.7364 9.53926 10.7984 9.44962 10.8407C9.35998 10.883 9.26384 10.9048 9.16673 10.9048C9.06962 10.9048 8.97347 10.883 8.88383 10.8407C8.7942 10.7984 8.71284 10.7364 8.64445 10.6583L5.27542 6.84165C5.20704 6.76355 5.12568 6.70155 5.03604 6.65924C4.9464 6.61694 4.85025 6.59515 4.75315 6.59515C4.65604 6.59515 4.55989 6.61694 4.47025 6.65924C4.38061 6.70155 4.29926 6.76355 4.23087 6.84165C4.09387 6.99779 4.01697 7.209 4.01697 7.42915C4.01697 7.64931 4.09387 7.86052 4.23087 8.01665L7.60726 11.8417C8.02104 12.3098 8.58193 12.5728 9.16673 12.5728C9.75153 12.5728 10.3124 12.3098 10.7262 11.8417L14.1026 8.01665C14.2396 7.86052 14.3165 7.64931 14.3165 7.42915C14.3165 7.209 14.2396 6.99779 14.1026 6.84165Z" fill="black" fill-opacity="0.47"/>
</svg>
