<svg width="19" height="20" viewBox="0 0 19 20" fill="none" xmlns="http://www.w3.org/2000/svg">
<path d="M14.7001 6.84165C14.6286 6.76355 14.5435 6.70155 14.4498 6.65924C14.356 6.61694 14.2555 6.59515 14.1539 6.59515C14.0524 6.59515 13.9518 6.61694 13.8581 6.65924C13.7644 6.70155 13.6793 6.76355 13.6078 6.84165L10.0847 10.6583C10.0132 10.7364 9.92811 10.7984 9.83437 10.8407C9.74064 10.883 9.64009 10.9048 9.53855 10.9048C9.437 10.9048 9.33645 10.883 9.24272 10.8407C9.14898 10.7984 9.0639 10.7364 8.99239 10.6583L5.46931 6.84165C5.3978 6.76355 5.31273 6.70155 5.21899 6.65924C5.12525 6.61694 5.02471 6.59515 4.92316 6.59515C4.82161 6.59515 4.72107 6.61694 4.62733 6.65924C4.53359 6.70155 4.44852 6.76355 4.37701 6.84165C4.23374 6.99779 4.15332 7.209 4.15332 7.42915C4.15332 7.64931 4.23374 7.86052 4.37701 8.01665L7.90778 11.8417C8.34047 12.3098 8.927 12.5728 9.53855 12.5728C10.1501 12.5728 10.7366 12.3098 11.1693 11.8417L14.7001 8.01665C14.8434 7.86052 14.9238 7.64931 14.9238 7.42915C14.9238 7.209 14.8434 6.99779 14.7001 6.84165Z" fill="black"/>
</svg>
