<svg width="23" height="22" viewBox="0 0 23 22" fill="none" xmlns="http://www.w3.org/2000/svg">
<path d="M17.8157 7.76545C17.7306 7.68887 17.6299 7.62868 17.5195 7.58836C17.409 7.54805 17.291 7.5284 17.1722 7.53054C17.0534 7.53269 16.9361 7.5566 16.8272 7.60088C16.7183 7.64516 16.6199 7.70895 16.5376 7.78855L12.4843 11.6791C12.402 11.7587 12.3036 11.8225 12.1947 11.8668C12.0858 11.9111 11.9685 11.935 11.8497 11.9371C11.7309 11.9393 11.6129 11.9196 11.5024 11.8793C11.392 11.839 11.2913 11.7788 11.2062 11.7022L7.01497 7.96069C6.92989 7.88411 6.82922 7.82392 6.71878 7.7836C6.60833 7.74329 6.49029 7.72363 6.37148 7.72578C6.25266 7.72793 6.13541 7.75184 6.02649 7.79612C5.91758 7.8404 5.81915 7.90419 5.73689 7.98379C5.57207 8.14293 5.4818 8.35581 5.48578 8.57593C5.48976 8.79605 5.58767 9.00552 5.75813 9.1586L9.95853 12.9083C10.4733 13.3672 11.1643 13.6178 11.8799 13.6048C12.5954 13.5919 13.277 13.3166 13.7748 12.8393L17.8369 8.94026C18.0017 8.78112 18.092 8.56824 18.088 8.34812C18.084 8.128 17.9861 7.91853 17.8157 7.76545Z" fill="black" fill-opacity="0.47"/>
</svg>
