<svg width="22" height="22" viewBox="0 0 22 22" fill="none" xmlns="http://www.w3.org/2000/svg">
<path d="M4.78345 14.1401C4.8669 14.2185 4.96627 14.2808 5.07584 14.3234C5.18541 14.3661 5.30301 14.3882 5.42185 14.3886C5.54069 14.3889 5.65841 14.3675 5.76824 14.3255C5.87806 14.2835 5.97781 14.2218 6.06173 14.144L10.1961 10.3397C10.2801 10.2619 10.3798 10.2002 10.4896 10.1582C10.5995 10.1162 10.7172 10.0948 10.836 10.0952C10.9549 10.0955 11.0725 10.1177 11.182 10.1603C11.2916 10.2029 11.391 10.2652 11.4744 10.3436L15.5859 14.1726C15.6693 14.251 15.7687 14.3133 15.8783 14.3559C15.9878 14.3986 16.1054 14.4207 16.2243 14.4211C16.3431 14.4214 16.4608 14.4 16.5707 14.358C16.6805 14.316 16.7802 14.2543 16.8642 14.1765C17.0323 14.0209 17.127 13.8099 17.1277 13.5898C17.1284 13.3696 17.0349 13.1581 16.8677 13.0015L12.7473 9.16407C12.2423 8.69439 11.5567 8.42936 10.841 8.4272C10.1254 8.42505 9.43819 8.68595 8.93041 9.15259L4.78698 12.9651C4.61885 13.1208 4.5241 13.3317 4.52344 13.5519C4.52278 13.772 4.61625 13.9835 4.78345 14.1401Z" fill="black" fill-opacity="0.47"/>
</svg>
