<svg width="22" height="20" viewBox="0 0 22 20" fill="none" xmlns="http://www.w3.org/2000/svg">
<path d="M16.8737 6.84165C16.79 6.76355 16.6905 6.70155 16.5808 6.65924C16.4711 6.61694 16.3534 6.59515 16.2346 6.59515C16.1157 6.59515 15.9981 6.61694 15.8884 6.65924C15.7787 6.70155 15.6791 6.76355 15.5954 6.84165L11.4725 10.6583C11.3888 10.7364 11.2892 10.7984 11.1795 10.8407C11.0698 10.883 10.9522 10.9048 10.8333 10.9048C10.7145 10.9048 10.5968 10.883 10.4871 10.8407C10.3774 10.7984 10.2779 10.7364 10.1942 10.6583L6.07125 6.84165C5.98757 6.76355 5.888 6.70155 5.77831 6.65924C5.66861 6.61694 5.55095 6.59515 5.43211 6.59515C5.31327 6.59515 5.19561 6.61694 5.08591 6.65924C4.97621 6.70155 4.87665 6.76355 4.79296 6.84165C4.6253 6.99779 4.53119 7.209 4.53119 7.42915C4.53119 7.64931 4.6253 7.86052 4.79296 8.01665L8.92491 11.8417C9.43127 12.3098 10.1177 12.5728 10.8333 12.5728C11.549 12.5728 12.2354 12.3098 12.7418 11.8417L16.8737 8.01665C17.0414 7.86052 17.1355 7.64931 17.1355 7.42915C17.1355 7.209 17.0414 6.99779 16.8737 6.84165Z" fill="black" fill-opacity="0.47"/>
</svg>
