<svg width="22" height="21" viewBox="0 0 22 21" fill="none" xmlns="http://www.w3.org/2000/svg">
<path d="M4.13464 15.6792C4.13464 15.6792 4.04813 16.3328 4.13464 16.6436C4.19485 16.8591 4.25238 17.2223 4.4825 17.2223H5.77446C6.00458 17.2223 6.06211 16.8591 6.12232 16.6436C6.20884 16.3332 6.12232 15.6792 6.12232 15.6792" stroke="black" stroke-width="1.04167" stroke-linecap="round" stroke-linejoin="round"/>
<path d="M17.8003 9.40894H4.38294C3.28518 9.40894 2.39526 10.2727 2.39526 11.3381V13.75C2.39526 14.8155 3.28518 15.6792 4.38294 15.6792H17.8003C18.8981 15.6792 19.788 14.8155 19.788 13.75V11.3381C19.788 10.2727 18.8981 9.40894 17.8003 9.40894Z" stroke="black" stroke-width="1.04167" stroke-linecap="round" stroke-linejoin="round"/>
<path d="M16.0612 15.6792C16.0612 15.6792 15.9746 16.3328 16.0612 16.6436C16.1214 16.8591 16.1789 17.2223 16.409 17.2223H17.701C17.9311 17.2223 17.9886 16.8591 18.0488 16.6436C18.1353 16.3332 18.0488 15.6792 18.0488 15.6792" stroke="black" stroke-width="1.04167" stroke-linecap="round" stroke-linejoin="round"/>
<path d="M5.12858 13.75C5.67759 13.75 6.12264 13.318 6.12264 12.7851C6.12264 12.2523 5.67759 11.8203 5.12858 11.8203C4.57958 11.8203 4.13452 12.2523 4.13452 12.7851C4.13452 13.318 4.57958 13.75 5.12858 13.75Z" stroke="black" stroke-width="1.04167" stroke-linecap="round" stroke-linejoin="round"/>
<path d="M4.38306 9.40892L5.52607 5.06787C5.7214 4.3264 6.57543 3.62085 7.36479 3.62085H14.8187C15.608 3.62085 16.4621 4.3264 16.6574 5.06787L17.8004 9.40892" stroke="black" stroke-width="1.04167" stroke-linecap="round" stroke-linejoin="round"/>
<path d="M17.0546 13.75C17.6036 13.75 18.0487 13.318 18.0487 12.7851C18.0487 12.2523 17.6036 11.8203 17.0546 11.8203C16.5056 11.8203 16.0605 12.2523 16.0605 12.7851C16.0605 13.318 16.5056 13.75 17.0546 13.75Z" stroke="black" stroke-width="1.04167" stroke-linecap="round" stroke-linejoin="round"/>
</svg>
