<svg width="10" height="10" viewBox="0 0 10 10" fill="none" xmlns="http://www.w3.org/2000/svg">
<g clip-path="url(#clip0_9_41)">
<path d="M9.34165 6.32076L9.52774 4.77514H1.97073V2.09361C1.97073 1.71535 2.2666 1.4078 2.63051 1.4078C2.83711 1.4078 3.03436 1.51031 3.15854 1.68205L3.35327 1.95181L3.18914 2.92946L3.57464 3.55429L5.65403 1.9331L5.26853 1.30827L4.2031 1.25888L4.02205 1.0082C3.69522 0.555483 3.17474 0.284973 2.63051 0.284973C1.67126 0.285347 0.8909 1.0965 0.8909 2.09361V4.77514L1.08815 6.32038C1.17274 7.02453 1.49488 7.64562 1.96425 8.10059L1.68421 9.26494H2.79716L2.92926 8.71569C3.23017 8.82905 3.5534 8.89079 3.88923 8.89079H6.54021C6.8728 8.89079 7.1935 8.83018 7.4919 8.71868L7.62328 9.26494H8.73622L8.45799 8.10769C8.93131 7.65198 9.25634 7.02827 9.34165 6.32076ZM3.88959 7.76834C3.01204 7.76834 2.2684 7.08627 2.1597 6.1812L2.1255 5.89759H8.30429L8.27009 6.18157C8.16139 7.08627 7.41775 7.76834 6.54021 7.76834H3.88923H3.88959Z" fill="#01ABCC"/>
</g>
<defs>
<clipPath id="clip0_9_41">
<rect width="8.63864" height="8.97959" fill="white" transform="translate(0.8909 0.285706)"/>
</clipPath>
</defs>
</svg>
