<svg width="20" height="20" viewBox="0 0 20 20" fill="none" xmlns="http://www.w3.org/2000/svg">
<g clip-path="url(#clip0_18_487)">
<path d="M19.565 13.4424L19.9958 9.99986H2.5V4.02736C2.5 3.18486 3.185 2.49986 4.0275 2.49986C4.50583 2.49986 4.9625 2.72819 5.25 3.11069L5.70083 3.71152L5.32083 5.88902L6.21333 7.28069L11.0275 3.66986L10.135 2.27819L7.66833 2.16819L7.24917 1.60986C6.4925 0.601524 5.2875 -0.000976562 4.0275 -0.000976562C1.80667 -0.000143229 0 1.80652 0 4.02736V9.99986L0.456667 13.4415C0.6525 15.0099 1.39833 16.3932 2.485 17.4065L1.83667 19.9999H4.41333L4.71917 18.7765C5.41583 19.029 6.16417 19.1665 6.94167 19.1665H13.0792C13.8492 19.1665 14.5917 19.0315 15.2825 18.7832L15.5867 19.9999H18.1633L17.5192 17.4224C18.615 16.4074 19.3675 15.0182 19.565 13.4424ZM6.9425 16.6665C4.91083 16.6665 3.18917 15.1474 2.9375 13.1315L2.85833 12.4999H17.1633L17.0842 13.1324C16.8325 15.1474 15.1108 16.6665 13.0792 16.6665H6.9425Z" fill="#01ABCC"/>
</g>
<defs>
<clipPath id="clip0_18_487">
<rect width="20" height="20" fill="white"/>
</clipPath>
</defs>
</svg>
