<svg width="20" height="20" viewBox="0 0 20 20" fill="none" xmlns="http://www.w3.org/2000/svg">
<g clip-path="url(#clip0_6_83)">
<path d="M15.8333 1.66666H4.16667C1.86917 1.66666 0 3.53582 0 5.83332V17.5C0 17.9608 0.373333 18.3333 0.833333 18.3333C1.29333 18.3333 1.66667 17.9608 1.66667 17.5V15.8333H18.3333V17.5C18.3333 17.9608 18.7058 18.3333 19.1667 18.3333C19.6275 18.3333 20 17.9608 20 17.5V5.83332C20 3.53582 18.1308 1.66666 15.8333 1.66666ZM4.16667 3.33332H15.8333C17.2117 3.33332 18.3333 4.45499 18.3333 5.83332V10.8333H16.6667C16.6667 8.99499 15.1717 7.49999 13.3333 7.49999H12.5C11.505 7.49999 10.6117 7.93832 10 8.63082C9.38833 7.93749 8.495 7.49999 7.5 7.49999H6.66667C4.82833 7.49999 3.33333 8.99499 3.33333 10.8333H1.66667V5.83332C1.66667 4.45499 2.78833 3.33332 4.16667 3.33332ZM10.8333 10.8333C10.8333 9.91416 11.5808 9.16666 12.5 9.16666H13.3333C14.2525 9.16666 15 9.91416 15 10.8333H10.8333ZM5 10.8333C5 9.91416 5.7475 9.16666 6.66667 9.16666H7.5C8.41917 9.16666 9.16667 9.91416 9.16667 10.8333H5ZM1.66667 14.1667V12.5H18.3333V14.1667H1.66667Z" fill="#01ABCC"/>
</g>
<defs>
<clipPath id="clip0_6_83">
<rect width="20" height="20" fill="white"/>
</clipPath>
</defs>
</svg>
