<svg width="10" height="10" viewBox="0 0 10 10" fill="none" xmlns="http://www.w3.org/2000/svg">
<g clip-path="url(#clip0_9_33)">
<path d="M7.42403 1.034H2.38483C1.39247 1.034 0.585114 1.87321 0.585114 2.90474V8.14284C0.585114 8.34975 0.746368 8.51699 0.945057 8.51699C1.14375 8.51699 1.305 8.34975 1.305 8.14284V7.39454H8.50386V8.14284C8.50386 8.34975 8.66476 8.51699 8.86381 8.51699C9.06286 8.51699 9.22375 8.34975 9.22375 8.14284V2.90474C9.22375 1.87321 8.4164 1.034 7.42403 1.034ZM2.38483 1.7823H7.42403C8.01938 1.7823 8.50386 2.2859 8.50386 2.90474V5.14964H7.78398C7.78398 4.32427 7.13824 3.65304 6.3442 3.65304H5.98426C5.55449 3.65304 5.16863 3.84985 4.90443 4.16077C4.64023 3.84947 4.25437 3.65304 3.8246 3.65304H3.46466C2.67062 3.65304 2.02489 4.32427 2.02489 5.14964H1.305V2.90474C1.305 2.2859 1.78948 1.7823 2.38483 1.7823ZM5.26437 5.14964C5.26437 4.73696 5.58724 4.40134 5.98426 4.40134H6.3442C6.74122 4.40134 7.06409 4.73696 7.06409 5.14964H5.26437ZM2.74477 5.14964C2.74477 4.73696 3.06764 4.40134 3.46466 4.40134H3.8246C4.22162 4.40134 4.54449 4.73696 4.54449 5.14964H2.74477ZM1.305 6.64624V5.89794H8.50386V6.64624H1.305Z" fill="#01ABCC"/>
</g>
<defs>
<clipPath id="clip0_9_33">
<rect width="8.63864" height="8.97959" fill="white" transform="translate(0.585114 0.285706)"/>
</clipPath>
</defs>
</svg>
