<svg width="20" height="20" viewBox="0 0 20 20" fill="none" xmlns="http://www.w3.org/2000/svg">
<g clip-path="url(#clip0_18_479)">
<path d="M15.8333 1.66669H4.16667C1.86917 1.66669 0 3.53585 0 5.83335V17.5C0 17.9609 0.373333 18.3334 0.833333 18.3334C1.29333 18.3334 1.66667 17.9609 1.66667 17.5V15.8334H18.3333V17.5C18.3333 17.9609 18.7058 18.3334 19.1667 18.3334C19.6275 18.3334 20 17.9609 20 17.5V5.83335C20 3.53585 18.1308 1.66669 15.8333 1.66669ZM4.16667 3.33335H15.8333C17.2117 3.33335 18.3333 4.45502 18.3333 5.83335V10.8334H16.6667C16.6667 8.99502 15.1717 7.50002 13.3333 7.50002H12.5C11.505 7.50002 10.6117 7.93835 10 8.63085C9.38833 7.93752 8.495 7.50002 7.5 7.50002H6.66667C4.82833 7.50002 3.33333 8.99502 3.33333 10.8334H1.66667V5.83335C1.66667 4.45502 2.78833 3.33335 4.16667 3.33335ZM10.8333 10.8334C10.8333 9.91419 11.5808 9.16669 12.5 9.16669H13.3333C14.2525 9.16669 15 9.91419 15 10.8334H10.8333ZM5 10.8334C5 9.91419 5.7475 9.16669 6.66667 9.16669H7.5C8.41917 9.16669 9.16667 9.91419 9.16667 10.8334H5ZM1.66667 14.1667V12.5H18.3333V14.1667H1.66667Z" fill="#01ABCC"/>
</g>
<defs>
<clipPath id="clip0_18_479">
<rect width="20" height="20" fill="white"/>
</clipPath>
</defs>
</svg>
