<svg width="10" height="10" viewBox="0 0 10 10" fill="none" xmlns="http://www.w3.org/2000/svg">
<g clip-path="url(#clip0_27_137)">
<path d="M5 0C4.0111 0 3.0444 0.293245 2.22215 0.842652C1.39991 1.39206 0.759043 2.17295 0.380605 3.08658C0.00216643 4.00021 -0.0968503 5.00555 0.0960758 5.97545C0.289002 6.94536 0.765206 7.83627 1.46447 8.53553C2.16373 9.2348 3.05465 9.711 4.02455 9.90393C4.99446 10.0969 5.99979 9.99784 6.91342 9.6194C7.82705 9.24096 8.60794 8.6001 9.15735 7.77785C9.70676 6.95561 10 5.98891 10 5C9.99857 3.67436 9.47132 2.40342 8.53395 1.46605C7.59658 0.528678 6.32564 0.00143378 5 0ZM5 9.16667C4.17591 9.16667 3.37033 8.9223 2.68513 8.46446C1.99992 8.00662 1.46587 7.35587 1.1505 6.59451C0.835139 5.83316 0.752625 4.99538 0.913397 4.18712C1.07417 3.37887 1.47101 2.63644 2.05372 2.05372C2.63644 1.471 3.37887 1.07417 4.18713 0.913395C4.99538 0.752623 5.83316 0.835137 6.59452 1.1505C7.35588 1.46587 8.00662 1.99992 8.46446 2.68512C8.9223 3.37033 9.16667 4.17591 9.16667 5C9.16546 6.1047 8.72608 7.1638 7.94494 7.94494C7.1638 8.72608 6.1047 9.16545 5 9.16667Z" fill="black"/>
<path d="M6.47335 3.52659C6.55193 3.60249 6.65718 3.64448 6.76643 3.64353C6.87568 3.64258 6.98018 3.59876 7.05744 3.52151C7.13469 3.44426 7.17851 3.33975 7.17946 3.2305C7.18041 3.12126 7.13841 3.016 7.06251 2.93742C6.6546 2.52955 6.1349 2.25179 5.56913 2.13927C5.00336 2.02676 4.41693 2.08454 3.884 2.3053C3.35106 2.52606 2.89556 2.8999 2.57508 3.37954C2.25461 3.85917 2.08356 4.42307 2.08356 4.99992C2.08356 5.57677 2.25461 6.14067 2.57508 6.6203C2.89556 7.09994 3.35106 7.47378 3.884 7.69454C4.41693 7.9153 5.00336 7.97308 5.56913 7.86057C6.1349 7.74805 6.6546 7.47029 7.06251 7.06242C7.13841 6.98384 7.18041 6.87858 7.17946 6.76934C7.17851 6.66009 7.13469 6.55558 7.05744 6.47833C6.98018 6.40108 6.87568 6.35726 6.76643 6.35631C6.65718 6.35536 6.55193 6.39735 6.47335 6.47325C6.18197 6.76456 5.81075 6.96292 5.40664 7.04326C5.00253 7.1236 4.58367 7.08232 4.20302 6.92462C3.82237 6.76692 3.49703 6.49989 3.26814 6.1573C3.03924 5.81471 2.91707 5.41194 2.91707 4.99992C2.91707 4.5879 3.03924 4.18513 3.26814 3.84254C3.49703 3.49995 3.82237 3.23292 4.20302 3.07522C4.58367 2.91752 5.00253 2.87624 5.40664 2.95658C5.81075 3.03692 6.18197 3.23528 6.47335 3.52659Z" fill="black"/>
</g>
<defs>
<clipPath id="clip0_27_137">
<rect width="10" height="10" fill="white"/>
</clipPath>
</defs>
</svg>
