<svg width="27" height="22" viewBox="0 0 27 22" fill="none" xmlns="http://www.w3.org/2000/svg">
<path d="M18.0662 3.63391C18.8965 3.63381 19.6958 3.88451 20.3019 4.33517C20.908 4.78583 21.2756 5.40269 21.33 6.06064L21.3366 6.23101V8.88006C22.0376 8.9939 22.6722 9.28708 23.1433 9.71468C23.6145 10.1423 23.8961 10.6807 23.9451 11.2476L23.9529 11.4252V17.6583C23.9532 17.7881 23.8923 17.9132 23.7822 18.0092C23.6721 18.1051 23.5207 18.1648 23.3579 18.1765C23.1952 18.1882 23.0328 18.1511 22.9027 18.0725C22.7726 17.9939 22.6843 17.8795 22.6552 17.7518L22.6448 17.6583V15.0612H4.33039V17.6583C4.33069 17.7881 4.26978 17.9132 4.15966 18.0092C4.04954 18.1051 3.89818 18.1648 3.7354 18.1765C3.57262 18.1882 3.41021 18.1511 3.28015 18.0725C3.15009 17.9939 3.0618 17.8795 3.03268 17.7518L3.02222 17.6583V11.4252C3.02206 10.8265 3.2824 10.2461 3.75917 9.78234C4.23594 9.31854 4.89986 8.9998 5.63856 8.88006V6.23101C5.63843 5.57164 5.95413 4.93692 6.52162 4.45559C7.08912 3.97426 7.86591 3.68236 8.69444 3.63911L8.90898 3.63391H18.0662ZM20.6825 9.86695H6.29264C5.80505 9.86695 5.33492 10.0111 4.97386 10.2713C4.6128 10.5315 4.38668 10.8892 4.33954 11.2746L4.33039 11.4252V14.0223H22.6448V11.4252C22.6448 11.038 22.4632 10.6647 22.1356 10.378C21.8079 10.0912 21.3575 9.91166 20.8722 9.87423L20.6825 9.86695ZM18.0662 4.67275H8.90898C8.42119 4.67277 7.95089 4.81707 7.5898 5.0775C7.22871 5.33794 7.00271 5.69584 6.95588 6.08142L6.94673 6.23101V8.82811H8.2549V8.30869C8.2549 8.17094 8.32381 8.03882 8.44647 7.94141C8.56914 7.844 8.73551 7.78927 8.90898 7.78927H12.1794C12.3529 7.78927 12.5192 7.844 12.6419 7.94141C12.7646 8.03882 12.8335 8.17094 12.8335 8.30869V8.82811H14.1417V8.30869C14.1417 8.17094 14.2106 8.03882 14.3332 7.94141C14.4559 7.844 14.6223 7.78927 14.7957 7.78927H18.0662C18.2396 7.78927 18.406 7.844 18.5287 7.94141C18.6513 8.03882 18.7203 8.17094 18.7203 8.30869V8.82811H20.0284V6.23101C20.0284 5.84381 19.8469 5.47047 19.5192 5.18375C19.1915 4.89703 18.7412 4.71745 18.2559 4.68002L18.0662 4.67275Z" fill="black"/>
</svg>
