<svg width="38" height="38" viewBox="0 0 38 38" fill="none" xmlns="http://www.w3.org/2000/svg">
<g clip-path="url(#clip0_53_370)">
<path d="M7.51082 36.3853L16.4968 36.8881C18.4822 36.9968 20.4297 36.3136 21.912 34.9883C23.3944 33.6631 24.2906 31.804 24.4041 29.8188L24.4124 29.6691C26.1221 29.416 27.6923 28.5813 28.8584 27.3056C30.0244 26.0299 30.715 24.3912 30.8137 22.6658L30.8221 22.516C32.5318 22.263 34.102 21.4283 35.268 20.1526C36.434 18.8769 37.1246 17.2382 37.2234 15.5127L37.5586 9.52205C37.6673 7.53663 36.9841 5.58915 35.6588 4.10679C34.3336 2.62442 32.4745 1.72822 30.4893 1.61475L21.5034 1.11193C19.5179 1.00322 17.5705 1.68642 16.0881 3.01168C14.6057 4.33694 13.7095 6.19605 13.5961 8.1812L13.5877 8.33097C11.878 8.58399 10.3078 9.41869 9.14177 10.6944C7.97573 11.9701 7.28515 13.6088 7.18641 15.3343L7.17803 15.484C5.46834 15.7371 3.89816 16.5718 2.73212 17.8475C1.56609 19.1232 0.875502 20.7619 0.776765 22.4873L0.441552 28.478C0.33284 30.4634 1.01604 32.4109 2.3413 33.8932C3.66656 35.3756 5.52567 36.2718 7.51082 36.3853ZM34.228 15.3451C34.1614 16.5367 33.6241 17.653 32.7343 18.4484C31.8446 19.2439 30.6753 19.6533 29.4837 19.5866L20.4977 19.0838C19.6836 19.0361 18.898 18.7671 18.2254 18.3059C17.5528 17.8447 17.0189 17.2087 16.681 16.4665L22.1456 11.5696L22.8168 12.3268C23.3173 12.8908 24.0124 13.2447 24.7628 13.3176C25.5133 13.3906 26.2636 13.1771 26.8632 12.72L34.1157 7.17654C34.4472 7.8528 34.6012 8.60227 34.5633 9.35445L34.228 15.3451ZM16.5914 8.34881C16.658 7.1572 17.1954 6.04088 18.0851 5.24543C18.9748 4.44999 20.1441 4.04057 21.3358 4.10725L30.3217 4.61007C30.8959 4.64344 31.4582 4.78766 31.9776 5.03474L25.0622 10.3251L24.3896 9.56489C23.8593 8.97192 23.1152 8.61385 22.321 8.5694C21.5267 8.52496 20.7474 8.79778 20.1542 9.32789L16.3457 12.7399L16.5914 8.34881ZM10.1817 15.5019C10.2374 14.5762 10.5777 13.6902 11.1561 12.9653C11.7345 12.2404 12.5228 11.7119 13.413 11.4521L13.2608 14.1718C13.1521 16.1572 13.8353 18.1047 15.1606 19.5871C16.4859 21.0695 18.345 21.9657 20.3301 22.0791L27.8184 22.4981C27.7517 23.6898 27.2144 24.8061 26.3247 25.6015C25.4349 26.397 24.2656 26.8064 23.074 26.7397L14.0881 26.2369C12.8965 26.1702 11.7801 25.6329 10.9847 24.7432C10.1893 23.8534 9.77983 22.6841 9.84651 21.4925L10.1817 15.5019ZM3.77208 22.655C3.82773 21.7292 4.16804 20.8433 4.74645 20.1184C5.32486 19.3935 6.11312 18.865 7.00338 18.6052L6.8512 21.3249C6.74249 23.3103 7.42569 25.2578 8.75095 26.7402C10.0762 28.2225 11.9353 29.1187 13.9205 29.2322L21.4088 29.6512C21.3421 30.8428 20.8048 31.9591 19.915 32.7546C19.0253 33.55 17.856 33.9595 16.6644 33.8928L7.67843 33.39C6.48682 33.3233 5.3705 32.786 4.57505 31.8962C3.77961 31.0065 3.37019 29.8372 3.43687 28.6456L3.77208 22.655ZM31.2327 15.1775C31.2162 15.4737 31.1121 15.7583 30.9338 15.9954C30.7554 16.2325 30.5108 16.4113 30.2308 16.5094C29.9508 16.6074 29.648 16.6202 29.3607 16.5462C29.0734 16.4722 28.8145 16.3146 28.6168 16.0934C28.4191 15.8722 28.2914 15.5974 28.2498 15.3037C28.2083 15.0099 28.2548 14.7104 28.3835 14.4431C28.5122 14.1758 28.7172 13.9526 28.9727 13.8019C29.2282 13.6511 29.5227 13.5794 29.8189 13.596C30.2161 13.6182 30.5882 13.7973 30.8533 14.0939C31.1185 14.3905 31.255 14.7803 31.2327 15.1775Z" fill="white"/>
</g>
<defs>
<clipPath id="clip0_53_370">
<rect width="36" height="36" fill="white" transform="translate(35.9663 37.9775) rotate(-176.797)"/>
</clipPath>
</defs>
</svg>
