<svg width="87" height="15" viewBox="0 0 87 15" fill="none" xmlns="http://www.w3.org/2000/svg">
<path d="M86.5276 5.39982L81.1924 4.93976L79.1073 0.0275269L77.0222 4.94718L71.687 5.39982L75.7385 8.90961L74.5216 14.1261L79.1073 11.3583L83.693 14.1261L82.4835 8.90961L86.5276 5.39982ZM79.1073 9.97072L76.3173 11.6551L77.0593 8.47924L74.5958 6.34219L77.8459 6.06022L79.1073 3.06985L80.3762 6.06764L83.6263 6.34961L81.1627 8.48666L81.9048 11.6625L79.1073 9.97072Z" fill="#ABABAB"/>
<path d="M7.87244 11.3583L12.4582 14.1261L11.2413 8.90961L15.2927 5.39982L9.95754 4.94718L7.87244 0.0275269L5.78734 4.94718L0.452148 5.39982L4.50363 8.90961L3.2867 14.1261L7.87244 11.3583Z" fill="#AB8000"/>
<path d="M25.681 11.3583L30.2668 14.1261L29.0498 8.90961L33.1013 5.39982L27.7661 4.94718L25.681 0.0275269L23.5959 4.94718L18.2607 5.39982L22.3122 8.90961L21.0953 14.1261L25.681 11.3583Z" fill="#AB8000"/>
<path d="M43.4899 11.3583L48.0756 14.1261L46.8587 8.90961L50.9102 5.39982L45.575 4.94718L43.4899 0.0275269L41.4048 4.94718L36.0696 5.39982L40.1211 8.90961L38.9041 14.1261L43.4899 11.3583Z" fill="#AB8000"/>
<path d="M68.7188 5.39982L63.3836 4.93976L61.2985 0.0275269L59.2134 4.94718L53.8782 5.39982L57.9297 8.90961L56.7127 14.1261L61.2985 11.3583L65.8842 14.1261L64.6747 8.90961L68.7188 5.39982ZM61.2985 9.97072V3.06985L62.5673 6.06764L65.8174 6.34961L63.3539 8.48666L64.0959 11.6625L61.2985 9.97072Z" fill="#AB8000"/>
</svg>
