<svg width="145" height="157" viewBox="0 0 145 157" fill="none" xmlns="http://www.w3.org/2000/svg">
<ellipse cx="72.5" cy="74.2463" rx="72.5" ry="74.2463" fill="#01ABCC" fill-opacity="0.31"/>
<ellipse cx="72.5" cy="82.7537" rx="72.5" ry="74.2463" fill="white"/>
<path d="M99.9978 96.1432L86.7904 82.9359C89.7496 78.9744 91.5024 74.0653 91.5024 68.7524C91.5 55.6566 80.8458 45 67.75 45C54.6543 45 44 55.6566 44 68.75C44 81.8434 54.6543 92.5 67.75 92.5C72.9679 92.5 77.7986 90.8066 81.7221 87.9424L94.958 101.178C95.6539 101.874 96.5659 102.221 97.4779 102.221C98.3899 102.221 99.3019 101.874 99.9978 101.178C101.39 99.7865 101.39 97.535 99.9978 96.1432ZM51.125 68.75C51.125 59.5849 58.5849 52.125 67.75 52.125C76.9151 52.125 84.375 59.5849 84.375 68.75C84.375 77.9151 76.9151 85.375 67.75 85.375C58.5849 85.375 51.125 77.9151 51.125 68.75ZM67.7001 56.8418C65.0045 56.8418 62.3065 57.8701 60.2498 59.9269C56.1339 64.0428 56.1339 70.7141 60.2498 74.8276L65.0259 79.4992C66.5126 80.9527 68.8876 80.9527 70.3744 79.4992L75.1505 74.8276C79.2664 70.7118 79.2664 64.0404 75.1505 59.9269C73.0938 57.8701 70.3958 56.8418 67.7001 56.8418ZM67.7001 71.0419C65.7408 71.0419 64.1543 69.453 64.1543 67.496C64.1543 65.539 65.7431 63.9501 67.7001 63.9501C69.6571 63.9501 71.246 65.539 71.246 67.496C71.246 69.453 69.6571 71.0419 67.7001 71.0419Z" fill="#01ABCC"/>
</svg>
