<svg width="23" height="22" viewBox="0 0 23 22" fill="none" xmlns="http://www.w3.org/2000/svg">
<path d="M20.6989 8.63333H18.2798V8.3087C18.2798 8.2226 18.2434 8.14002 18.1786 8.07914C18.1138 8.01826 18.0259 7.98406 17.9342 7.98406H12.4049C12.3133 7.98406 12.2254 8.01826 12.1606 8.07914C12.0958 8.14002 12.0594 8.2226 12.0594 8.3087V8.63333H5.83888V4.73768C5.83888 4.39328 5.98452 4.06299 6.24375 3.81947C6.50299 3.57594 6.85459 3.43913 7.22121 3.43913C7.58782 3.43913 7.93942 3.57594 8.19866 3.81947C8.4579 4.06299 8.60353 4.39328 8.60353 4.73768C8.60353 4.82378 8.63994 4.90635 8.70475 4.96724C8.76956 5.02812 8.85746 5.06232 8.94912 5.06232C9.04077 5.06232 9.12867 5.02812 9.19348 4.96724C9.25829 4.90635 9.2947 4.82378 9.2947 4.73768C9.2947 4.22109 9.07624 3.72565 8.68739 3.36036C8.29853 2.99507 7.77113 2.78986 7.22121 2.78986C6.67128 2.78986 6.14388 2.99507 5.75503 3.36036C5.36617 3.72565 5.14771 4.22109 5.14771 4.73768V8.63333H2.72864C2.45368 8.63333 2.18998 8.73594 1.99555 8.91859C1.80112 9.10123 1.69189 9.34895 1.69189 9.60725V12.2043C1.69189 13.3236 2.16522 14.3971 3.00774 15.1885C3.85026 15.98 4.99296 16.4246 6.18446 16.4246H6.53004V18.0478C6.53004 18.1339 6.56645 18.2165 6.63126 18.2774C6.69607 18.3383 6.78397 18.3725 6.87562 18.3725C6.96728 18.3725 7.05518 18.3383 7.11999 18.2774C7.1848 18.2165 7.22121 18.1339 7.22121 18.0478V16.4246H16.2063V18.0478C16.2063 18.1339 16.2427 18.2165 16.3076 18.2774C16.3724 18.3383 16.4603 18.3725 16.5519 18.3725C16.6436 18.3725 16.7315 18.3383 16.7963 18.2774C16.8611 18.2165 16.8975 18.1339 16.8975 18.0478V16.4246H17.2431C18.4346 16.4246 19.5773 15.98 20.4198 15.1885C21.2623 14.3971 21.7357 13.3236 21.7357 12.2043V9.60725C21.7357 9.34895 21.6264 9.10123 21.432 8.91859C21.2376 8.73594 20.9739 8.63333 20.6989 8.63333ZM12.7505 8.63333H17.5887V11.8797H12.7505V8.63333ZM21.0445 12.2043C21.0445 13.1514 20.644 14.0597 19.9311 14.7294C19.2182 15.3991 18.2513 15.7754 17.2431 15.7754H6.18446C5.17627 15.7754 4.20936 15.3991 3.49646 14.7294C2.78356 14.0597 2.38306 13.1514 2.38306 12.2043V9.60725C2.38306 9.52115 2.41947 9.43857 2.48428 9.37769C2.54909 9.31681 2.63699 9.28261 2.72864 9.28261H12.0594V12.2043C12.0594 12.2904 12.0958 12.373 12.1606 12.4339C12.2254 12.4948 12.3133 12.529 12.4049 12.529H17.9342C18.0259 12.529 18.1138 12.4948 18.1786 12.4339C18.2434 12.373 18.2798 12.2904 18.2798 12.2043V9.28261H20.6989C20.7906 9.28261 20.8785 9.31681 20.9433 9.37769C21.0081 9.43857 21.0445 9.52115 21.0445 9.60725V12.2043Z" fill="black"/>
</svg>
