<svg width="20" height="20" viewBox="0 0 20 20" fill="none" xmlns="http://www.w3.org/2000/svg">
<g clip-path="url(#clip0_53_367)">
<path d="M17.0767 13.3592L9.12834 19.1875C8.50753 19.6421 7.77296 19.9159 7.00606 19.9786C6.23916 20.0413 5.46988 19.8903 4.78349 19.5426C4.09711 19.1948 3.52043 18.6638 3.11737 18.0083C2.71432 17.3529 2.50063 16.5986 2.50001 15.8292V4.16667C2.49881 3.39646 2.71138 2.64103 3.11405 1.98446C3.51672 1.32789 4.09369 0.795946 4.78075 0.44784C5.46781 0.0997334 6.23799 -0.0508785 7.00557 0.0127678C7.77314 0.0764141 8.508 0.351822 9.12834 0.808336L17.0767 6.63667C17.6041 7.02371 18.0329 7.5295 18.3285 8.11308C18.6241 8.69667 18.7782 9.34166 18.7782 9.99584C18.7782 10.65 18.6241 11.295 18.3285 11.8786C18.0329 12.4622 17.6041 12.968 17.0767 13.355V13.3592Z" fill="#01ABCC"/>
</g>
<defs>
<clipPath id="clip0_53_367">
<rect width="20" height="20" fill="white" transform="matrix(1 0 0 -1 0 20)"/>
</clipPath>
</defs>
</svg>
