<svg width="81" height="85" viewBox="0 0 81 85" fill="none" xmlns="http://www.w3.org/2000/svg">
<g clip-path="url(#clip0_25_84)">
<path d="M26.8379 15.024L13.8073 15.3214C10.3513 15.4003 7.07018 16.9335 4.68567 19.5837C2.30116 22.234 1.00859 25.7842 1.09233 29.4533L1.40804 43.2879C1.44991 45.1225 2.17649 46.8662 3.42796 48.1356C4.67942 49.405 6.35325 50.0959 8.08122 50.0565L24.3695 49.6848C24.469 54.2697 22.8516 58.7043 19.872 62.0159C16.8925 65.3275 12.7941 67.2457 8.47587 67.3497C7.17989 67.3793 5.94946 67.9542 5.05527 68.9481C4.16108 69.9419 3.67637 71.2732 3.70777 72.6492C3.73917 74.0251 4.28411 75.3329 5.2227 76.2849C6.1613 77.237 7.41668 77.7552 8.71265 77.7256C15.622 77.5597 22.1797 74.4907 26.9471 69.1921C31.7144 63.8934 34.3022 56.7977 34.1425 49.4618L33.5111 21.7926C33.4692 19.9581 32.7426 18.2143 31.4912 16.9449C30.2397 15.6756 28.5659 14.9846 26.8379 15.024Z" fill="#D9D9D9"/>
<path d="M72.4452 13.9833L59.4146 14.2806C55.9586 14.3595 52.6775 15.8927 50.293 18.543C47.9085 21.1932 46.6159 24.7434 46.6996 28.4126L47.0153 42.2471C47.0572 44.0817 47.7838 45.8255 49.0353 47.0948C50.2867 48.3642 51.9606 49.0552 53.6885 49.0157L69.9768 48.644C70.0763 53.2289 68.4589 57.6635 65.4793 60.9751C62.4998 64.2867 58.4014 66.2049 54.0832 66.3089C52.7872 66.3385 51.5568 66.9135 50.6626 67.9073C49.7684 68.9011 49.2837 70.2325 49.3151 71.6084C49.3465 72.9843 49.8914 74.2922 50.83 75.2442C51.7686 76.1962 53.024 76.7144 54.32 76.6848C61.2293 76.5189 67.787 73.45 72.5544 68.1513C77.3217 62.8526 79.9095 55.7569 79.7498 48.421L79.1184 20.7519C79.0765 18.9173 78.3499 17.1735 77.0985 15.9042C75.847 14.6348 74.1732 13.9438 72.4452 13.9833Z" fill="#D9D9D9"/>
</g>
<defs>
<clipPath id="clip0_25_84">
<rect width="78.2042" height="83.029" fill="white" transform="translate(0.460938 1.78418) rotate(-1.30731)"/>
</clipPath>
</defs>
</svg>
