<svg width="79" height="84" viewBox="0 0 79 84" fill="none" xmlns="http://www.w3.org/2000/svg">
<g clip-path="url(#clip0_25_81)">
<path d="M52.3517 69.6095L65.3854 69.6952C68.8422 69.718 72.167 68.2819 74.6284 65.7029C77.0897 63.1239 78.4861 59.6132 78.5102 55.9431L78.6013 42.1053C78.6134 40.2703 77.9383 38.5059 76.7247 37.2003C75.5111 35.8947 73.8583 35.1548 72.1299 35.1435L55.8377 35.0363C55.8731 30.4505 57.6202 26.0653 60.6958 22.8427C63.7713 19.6201 67.9243 17.8232 72.2437 17.8461C73.54 17.8547 74.7868 17.3161 75.7098 16.349C76.6329 15.3819 77.1565 14.0654 77.1655 12.6891C77.1746 11.3128 76.6683 9.98956 75.7581 9.01036C74.8479 8.03117 73.6083 7.47627 72.312 7.46774C65.4008 7.43051 58.7557 10.3054 53.8347 15.4617C48.9136 20.6179 46.1184 27.6345 46.0624 34.972L45.8803 62.6477C45.8682 64.4827 46.5433 66.2471 47.7569 67.5527C48.9705 68.8583 50.6233 69.5981 52.3517 69.6095Z" fill="#D9D9D9"/>
<path d="M6.7335 69.3093L19.7673 69.3951C23.224 69.4178 26.5488 67.9817 29.0102 65.4027C31.4716 62.8237 32.8679 59.313 32.8921 55.643L32.9831 41.8051C32.9952 39.9701 32.3202 38.2057 31.1066 36.9001C29.8929 35.5945 28.2401 34.8547 26.5118 34.8433L10.2196 34.7361C10.2549 30.1503 12.002 25.7651 15.0776 22.5425C18.1532 19.3199 22.3062 17.523 26.6256 17.546C27.9219 17.5545 29.1687 17.016 30.0917 16.0488C31.0147 15.0817 31.5383 13.7652 31.5474 12.3889C31.5564 11.0127 31.0502 9.68939 30.14 8.71019C29.2297 7.731 27.9901 7.1761 26.6939 7.16757C19.7827 7.13034 13.1376 10.0052 8.21652 15.1615C3.29546 20.3178 0.500285 27.3343 0.444244 34.6718L0.262148 62.3475C0.250075 64.1825 0.925094 65.9469 2.13871 67.2525C3.35232 68.5581 5.00512 69.2979 6.7335 69.3093Z" fill="#D9D9D9"/>
</g>
<defs>
<clipPath id="clip0_25_81">
<rect width="78.2042" height="83.029" fill="white" transform="translate(78.3281 83.6189) rotate(-179.623)"/>
</clipPath>
</defs>
</svg>
