<svg width="14" height="16" viewBox="0 0 14 16" fill="none" xmlns="http://www.w3.org/2000/svg">
<g clip-path="url(#clip0_9_50)">
<path d="M6.66314 12.8339L10.1797 6.07398C10.577 5.31024 10.3905 4.29898 9.7632 3.81526L8.77664 3.05454C8.14933 2.57082 7.31872 2.79783 6.92142 3.56158L6.60818 4.16373L7.58176 4.91445C7.76122 5.05283 7.81441 5.3413 7.70075 5.55979C7.58709 5.77829 7.35015 5.84305 7.17069 5.70466L6.1971 4.95395L5.78171 5.75246L6.7553 6.50318C6.93476 6.64156 6.98795 6.93003 6.87429 7.14853C6.76063 7.36703 6.52369 7.43178 6.34422 7.2934L5.37064 6.54268L4.95546 7.3408L5.92904 8.09152C6.1085 8.2299 6.16169 8.51837 6.04803 8.73687C5.93437 8.95536 5.69743 9.02012 5.51797 8.88174L4.54438 8.13102L4.12899 8.92954L5.10258 9.68026C5.28204 9.81864 5.33523 10.1071 5.22157 10.3256C5.1079 10.5441 4.87097 10.6089 4.6915 10.4705L3.71792 9.71976L3.40468 10.3219C3.00738 11.0857 3.19384 12.0969 3.82115 12.5806L4.80771 13.3414C5.43502 13.8251 6.26563 13.5981 6.66294 12.8343L6.66314 12.8339Z" fill="#01ABCC"/>
</g>
<defs>
<clipPath id="clip0_9_50">
<rect width="10.6889" height="9.83525" fill="white" transform="matrix(-0.461494 0.887144 -0.791912 -0.610635 13.1577 6.43274)"/>
</clipPath>
</defs>
</svg>
