<svg width="35" height="36" viewBox="0 0 35 36" fill="none" xmlns="http://www.w3.org/2000/svg">
<g clip-path="url(#clip0_6_100)">
<path d="M17.2942 28.2664L26.83 13.2102C27.9073 11.5091 27.4017 9.25673 25.7006 8.17937L23.0254 6.48502C21.3243 5.40766 19.072 5.91328 17.9946 7.61435L17.1452 8.95549L19.7853 10.6275C20.2719 10.9358 20.4161 11.5783 20.1079 12.0649C19.7997 12.5516 19.1572 12.6958 18.6705 12.3876L16.0305 10.7155L14.9041 12.494L17.5441 14.1661C18.0308 14.4743 18.175 15.1168 17.8668 15.6035C17.5586 16.0901 16.9161 16.2343 16.4294 15.9261L13.7894 14.2541L12.6635 16.0317L15.3036 17.7038C15.7902 18.012 15.9345 18.6545 15.6263 19.1411C15.318 19.6278 14.6755 19.772 14.1889 19.4638L11.5488 17.7917L10.4224 19.5703L13.0625 21.2423C13.5491 21.5505 13.6934 22.193 13.3851 22.6797C13.0769 23.1663 12.4344 23.3106 11.9478 23.0023L9.30773 21.3303L8.45832 22.6714C7.38096 24.3725 7.88658 26.6249 9.58765 27.7022L12.2629 29.3966C13.964 30.4739 16.2163 29.9683 17.2937 28.2672L17.2942 28.2664Z" fill="#01ABCC"/>
</g>
<defs>
<clipPath id="clip0_6_100">
<rect width="25" height="25" fill="white" transform="translate(34.9056 14.0093) rotate(122.348)"/>
</clipPath>
</defs>
</svg>
