<svg width="35" height="36" viewBox="0 0 35 36" fill="none" xmlns="http://www.w3.org/2000/svg">
<g clip-path="url(#clip0_6_190)">
<path d="M17.2943 28.2664L26.83 13.2102C27.9074 11.5091 27.4018 9.25674 25.7007 8.17938L23.0255 6.48503C21.3244 5.40767 19.072 5.91329 17.9947 7.61436L17.1453 8.95551L19.7853 10.6276C20.272 10.9358 20.4162 11.5783 20.108 12.0649C19.7998 12.5516 19.1573 12.6958 18.6706 12.3876L16.0306 10.7155L14.9042 12.4941L17.5442 14.1661C18.0309 14.4743 18.1751 15.1168 17.8669 15.6035C17.5587 16.0901 16.9161 16.2344 16.4295 15.9261L13.7895 14.2541L12.6636 16.0317L15.3037 17.7038C15.7903 18.012 15.9345 18.6545 15.6263 19.1411C15.3181 19.6278 14.6756 19.772 14.1889 19.4638L11.5489 17.7918L10.4225 19.5703L13.0625 21.2423C13.5492 21.5505 13.6934 22.193 13.3852 22.6797C13.077 23.1663 12.4345 23.3106 11.9478 23.0024L9.30779 21.3303L8.45839 22.6714C7.38103 24.3725 7.88664 26.6249 9.58772 27.7022L12.263 29.3966C13.964 30.4739 16.2164 29.9683 17.2938 28.2673L17.2943 28.2664Z" fill="#01ABCC"/>
</g>
<defs>
<clipPath id="clip0_6_190">
<rect width="25" height="25" fill="white" transform="translate(34.9056 14.0093) rotate(122.348)"/>
</clipPath>
</defs>
</svg>
