<svg width="20" height="20" viewBox="0 0 20 20" fill="none" xmlns="http://www.w3.org/2000/svg">
<g clip-path="url(#clip0_4_85)">
<path d="M9.10917 2.29164C8.9303 1.63353 8.53986 1.05256 7.99806 0.638362C7.45627 0.224165 6.79323 -0.000244141 6.11125 -0.000244141C5.42927 -0.000244141 4.76623 0.224165 4.22444 0.638362C3.68264 1.05256 3.2922 1.63353 3.11333 2.29164H0V3.9583H3.11333C3.2922 4.61641 3.68264 5.19738 4.22444 5.61158C4.76623 6.02578 5.42927 6.25019 6.11125 6.25019C6.79323 6.25019 7.45627 6.02578 7.99806 5.61158C8.53986 5.19738 8.9303 4.61641 9.10917 3.9583H20V2.29164H9.10917ZM6.11083 4.5833C5.8224 4.5833 5.54045 4.49778 5.30063 4.33753C5.0608 4.17729 4.87389 3.94953 4.76351 3.68305C4.65313 3.41658 4.62425 3.12335 4.68052 2.84046C4.73679 2.55758 4.87568 2.29773 5.07964 2.09377C5.28359 1.88982 5.54344 1.75093 5.82633 1.69466C6.10922 1.63839 6.40244 1.66727 6.66891 1.77765C6.93539 1.88803 7.16315 2.07494 7.32339 2.31476C7.48364 2.55459 7.56917 2.83654 7.56917 3.12497C7.56851 3.51154 7.41465 3.88209 7.1413 4.15544C6.86795 4.42879 6.4974 4.58264 6.11083 4.5833Z" fill="#1E1E1E" fill-opacity="0.47"/>
<path d="M13.8892 6.875C13.2079 6.87744 12.5461 7.10275 12.0049 7.51654C11.4636 7.93033 11.0727 8.50986 10.8917 9.16667H0V10.8333H10.8917C11.0702 11.4916 11.4605 12.0728 12.0023 12.4871C12.544 12.9015 13.2071 13.126 13.8892 13.126C14.5712 13.126 15.2343 12.9015 15.7761 12.4871C16.3178 12.0728 16.7081 11.4916 16.8867 10.8333H20V9.16667H16.8867C16.7057 8.50986 16.3147 7.93033 15.7735 7.51654C15.2322 7.10275 14.5705 6.87744 13.8892 6.875ZM13.8892 11.4583C13.6007 11.4583 13.3188 11.3728 13.079 11.2126C12.8391 11.0523 12.6522 10.8246 12.5418 10.5581C12.4315 10.2916 12.4026 9.99838 12.4589 9.71549C12.5151 9.4326 12.654 9.17275 12.858 8.9688C13.0619 8.76485 13.3218 8.62596 13.6047 8.56969C13.8875 8.51342 14.1808 8.5423 14.4472 8.65268C14.7137 8.76305 14.9415 8.94997 15.1017 9.18979C15.262 9.42962 15.3475 9.71157 15.3475 10C15.3471 10.3866 15.1933 10.7573 14.9199 11.0307C14.6465 11.3041 14.2758 11.4579 13.8892 11.4583Z" fill="#1E1E1E" fill-opacity="0.47"/>
<path d="M6.11083 13.75C5.42912 13.7519 4.76677 13.977 4.22503 14.3908C3.68329 14.8046 3.29195 15.3844 3.11083 16.0417H0V17.7083H3.11333C3.2922 18.3664 3.68264 18.9474 4.22444 19.3616C4.76623 19.7758 5.42927 20.0002 6.11125 20.0002C6.79323 20.0002 7.45627 19.7758 7.99806 19.3616C8.53986 18.9474 8.9303 18.3664 9.10917 17.7083H20V16.0417H9.10917C8.92812 15.3847 8.53703 14.8051 7.99563 14.3913C7.45423 13.9775 6.79226 13.7523 6.11083 13.75ZM6.11083 18.3333C5.8224 18.3333 5.54045 18.2478 5.30063 18.0876C5.0608 17.9273 4.87389 17.6996 4.76351 17.4331C4.65313 17.1666 4.62425 16.8734 4.68052 16.5905C4.73679 16.3076 4.87568 16.0478 5.07964 15.8438C5.28359 15.6399 5.54344 15.501 5.82633 15.4447C6.10922 15.3884 6.40244 15.4173 6.66891 15.5277C6.93539 15.6381 7.16315 15.825 7.32339 16.0648C7.48364 16.3046 7.56917 16.5866 7.56917 16.875C7.56851 17.2616 7.41465 17.6321 7.1413 17.9055C6.86795 18.1788 6.4974 18.3327 6.11083 18.3333Z" fill="#1E1E1E" fill-opacity="0.47"/>
</g>
<defs>
<clipPath id="clip0_4_85">
<rect width="20" height="20" fill="white"/>
</clipPath>
</defs>
</svg>
