<svg width="37" height="32" viewBox="0 0 37 32" fill="none" xmlns="http://www.w3.org/2000/svg">
<path d="M36.75 15.7272C36.7372 14.346 36.1808 13.0256 35.2012 12.0519L23.94 0.763397C23.4482 0.274446 22.7829 0 22.0894 0C21.3959 0 20.7306 0.274446 20.2388 0.763397C19.9927 1.00745 19.7974 1.2978 19.6642 1.61771C19.5309 1.93761 19.4623 2.28075 19.4623 2.62731C19.4623 2.97387 19.5309 3.317 19.6642 3.63691C19.7974 3.95681 19.9927 4.24717 20.2388 4.49121L28.875 13.102H2.625C1.92881 13.102 1.26113 13.3785 0.768845 13.8709C0.276562 14.3632 0 15.0309 0 15.7272C0 16.4234 0.276562 17.0912 0.768845 17.5835C1.26113 18.0758 1.92881 18.3524 2.625 18.3524H28.875L20.2388 26.9894C19.7445 27.4802 19.4654 28.1474 19.4629 28.844C19.4605 29.5407 19.7348 30.2097 20.2256 30.7041C20.7164 31.1984 21.3835 31.4775 22.0801 31.48C22.7767 31.4824 23.4457 31.2081 23.94 30.7172L35.2012 19.4287C36.1872 18.4486 36.7441 17.1174 36.75 15.7272Z" fill="#D9D9D9"/>
</svg>
