<svg width="22" height="22" viewBox="0 0 22 22" fill="none" xmlns="http://www.w3.org/2000/svg">
<path d="M1.20854 11.3668L4.47187 13.7502L3.23254 17.5882C3.03226 18.1835 3.02972 18.8276 3.2253 19.4244C3.42089 20.0212 3.80412 20.5389 4.31787 20.9002C4.82282 21.273 5.43473 21.4728 6.06243 21.4697C6.69013 21.4665 7.30001 21.2607 7.8012 20.8827L10.9921 18.5342L14.184 20.88C14.688 21.2507 15.2966 21.4521 15.9223 21.4552C16.548 21.4582 17.1585 21.2628 17.6662 20.897C18.1738 20.5311 18.5523 20.0138 18.7474 19.4193C18.9424 18.8247 18.944 18.1837 18.7517 17.5882L17.5124 13.7502L20.7757 11.3668C21.2791 10.9988 21.6533 10.4811 21.8449 9.88768C22.0364 9.29427 22.0356 8.6555 21.8424 8.0626C21.6492 7.4697 21.2737 6.95301 20.7693 6.58632C20.2649 6.21964 19.6576 6.02172 19.034 6.02083H15.0255L13.809 2.22949C13.6177 1.63271 13.2419 1.11209 12.7356 0.742721C12.2293 0.373352 11.6188 0.174316 10.9921 0.174316C10.3654 0.174316 9.75492 0.373352 9.24865 0.742721C8.74237 1.11209 8.36649 1.63271 8.1752 2.22949L6.95879 6.02083H2.95387C2.3303 6.02172 1.72296 6.21964 1.2186 6.58632C0.714241 6.95301 0.338658 7.4697 0.145498 8.0626C-0.0476613 8.6555 -0.0485162 9.29427 0.143055 9.88768C0.334627 10.4811 0.708826 10.9988 1.2122 11.3668H1.20854Z" fill="#FFD700"/>
</svg>
