<svg width="25" height="25" viewBox="0 0 25 25" fill="none" xmlns="http://www.w3.org/2000/svg">
<path d="M9.375 16.6658H11.0312C12.1458 16.6658 13.1875 16.2283 13.9792 15.4469L24.0833 5.33128C24.6771 4.73747 25 3.95614 25 3.12272C25 2.2893 24.6771 1.50797 24.0833 0.914158C22.8646 -0.304719 20.8854 -0.304719 19.6667 0.914158L9.55208 11.0298C8.76042 11.8215 8.33333 12.8633 8.33333 13.978V15.6344C8.33333 16.2074 8.80208 16.6762 9.375 16.6762V16.6658ZM22.6146 2.38306C22.8125 2.581 22.9167 2.84144 22.9167 3.12272C22.9167 3.404 22.8125 3.66444 22.6146 3.86238L21.2708 5.20627L19.8021 3.73737L21.1458 2.39348C21.5521 1.98719 22.2083 1.98719 22.6146 2.39348V2.38306ZM10.4167 13.9676C10.4167 13.4155 10.6354 12.8842 11.0312 12.4987L18.3229 5.20627L19.7917 6.67517L12.5 13.9676C12.1042 14.3635 11.5833 14.5822 11.0312 14.5822H10.4167V13.9676ZM25 23.9582C25 24.5312 24.5312 25 23.9583 25C22.3542 25 21.5729 23.8332 21.0104 22.9685C20.4896 22.1872 20.2292 21.8747 19.7917 21.8747C19.2604 21.8747 18.8542 22.3331 18.2188 23.0727C17.4896 23.9374 16.5833 25 15.0625 25C13.5417 25 12.6458 23.927 11.9375 23.0519C11.3333 22.3226 10.9375 21.8747 10.4167 21.8747C10.0104 21.8747 9.76042 22.1351 9.20833 22.8227C8.45833 23.7395 7.42708 25 5.20833 25C2.33333 25 0 22.6664 0 19.7911C0 16.9158 2.33333 14.5822 5.20833 14.5822C5.78125 14.5822 6.25 15.051 6.25 15.624C6.25 16.197 5.78125 16.6658 5.20833 16.6658C3.48958 16.6658 2.08333 18.0722 2.08333 19.7911C2.08333 21.5101 3.48958 22.9165 5.20833 22.9165C6.4375 22.9165 6.94792 22.2914 7.59375 21.4996C8.21875 20.7391 8.98958 19.7911 10.4167 19.7911C11.9479 19.7911 12.8333 20.8642 13.5417 21.7392C14.1458 22.4685 14.5417 22.9165 15.0625 22.9165C15.5833 22.9165 16 22.4581 16.6354 21.7184C17.3646 20.8537 18.2708 19.7911 19.7917 19.7911C21.3125 19.7911 22.1771 20.9579 22.7396 21.8226C23.2604 22.6039 23.5208 22.9165 23.9583 22.9165C24.5312 22.9165 25 23.3852 25 23.9582Z" fill="#1E1E1E" fill-opacity="0.37"/>
</svg>
