<svg width="21" height="18" viewBox="0 0 21 18" fill="none" xmlns="http://www.w3.org/2000/svg">
<path d="M14.5874 0C13.649 0.0145958 12.7311 0.276544 11.9263 0.759393C11.1216 1.24224 10.4585 1.92889 10.004 2.75C9.54957 1.92889 8.88648 1.24224 8.08173 0.759393C7.27698 0.276544 6.35908 0.0145958 5.4207 0C3.92482 0.0649923 2.51546 0.719378 1.50052 1.82019C0.485584 2.92101 -0.0524245 4.37877 0.00403425 5.875C0.00403425 9.66417 3.99237 13.8025 7.33737 16.6083C8.08422 17.2359 9.02849 17.58 10.004 17.58C10.9796 17.58 11.9239 17.2359 12.6707 16.6083C16.0157 13.8025 20.004 9.66417 20.004 5.875C20.0605 4.37877 19.5225 2.92101 18.5075 1.82019C17.4926 0.719378 16.0832 0.0649923 14.5874 0Z" fill="#FE0808"/>
</svg>
