<svg width="13" height="13" viewBox="0 0 13 13" fill="none" xmlns="http://www.w3.org/2000/svg">
<path d="M12.3358 6.00385C12.3365 5.00502 12.0929 4.02182 11.6274 3.14345C11.1618 2.26508 10.4889 1.51932 9.66968 0.973824C8.85048 0.428323 7.91091 0.100341 6.9362 0.0196245C5.96148 -0.0610917 4.98246 0.108013 4.08792 0.5116C3.19339 0.915186 2.41166 1.54049 1.81363 2.33078C1.21559 3.12107 0.820189 4.05136 0.663275 5.03725C0.506361 6.02314 0.592902 7.03345 0.915049 7.97653C1.2372 8.91962 1.78476 9.76564 2.50806 10.4379C2.52292 10.4568 2.5408 10.473 2.56093 10.4859C3.63576 11.4638 5.02499 12.0042 6.46443 12.0042C7.90386 12.0042 9.2931 11.4638 10.3679 10.4859L10.4149 10.4379C11.0207 9.8769 11.5046 9.19249 11.8354 8.42878C12.1663 7.66506 12.3367 6.83899 12.3358 6.00385ZM1.0571 6.00385C1.05703 5.09659 1.27591 4.2033 1.69435 3.40301C2.1128 2.60273 2.71793 1.92013 3.45618 1.41561C4.19443 0.911095 5.04306 0.600216 5.92696 0.510482C6.81087 0.420748 7.7028 0.554926 8.52384 0.901144C9.34488 1.24736 10.0697 1.79495 10.6342 2.49544C11.1987 3.19594 11.5854 4.02775 11.7602 4.91728C11.935 5.8068 11.8924 6.72662 11.6363 7.59533C11.3801 8.46405 10.9182 9.25488 10.2916 9.89785C9.70822 8.89969 8.77282 8.16757 7.67748 7.85185C8.18616 7.57485 8.58959 7.13211 8.82361 6.59402C9.05764 6.05593 9.10884 5.45338 8.96907 4.88215C8.8293 4.31093 8.50658 3.80382 8.05223 3.44145C7.59787 3.07908 7.03795 2.88225 6.46149 2.88225C5.88503 2.88225 5.32511 3.07908 4.87075 3.44145C4.4164 3.80382 4.09368 4.31093 3.95391 4.88215C3.81414 5.45338 3.86534 6.05593 4.09937 6.59402C4.33339 7.13211 4.73682 7.57485 5.2455 7.85185C4.15016 8.16757 3.21476 8.89969 2.63143 9.89785C1.62381 8.86311 1.05786 7.46326 1.0571 6.00385ZM6.46149 7.68385C6.04323 7.68385 5.63436 7.55717 5.28659 7.31983C4.93882 7.08248 4.66777 6.74514 4.50771 6.35045C4.34765 5.95576 4.30577 5.52146 4.38736 5.10246C4.46896 4.68346 4.67037 4.29858 4.96613 3.9965C5.26188 3.69442 5.6387 3.4887 6.04892 3.40536C6.45914 3.32201 6.88435 3.36479 7.27077 3.52827C7.65719 3.69176 7.98748 3.96861 8.21985 4.32382C8.45222 4.67903 8.57625 5.09665 8.57625 5.52385C8.57625 6.09672 8.35344 6.64612 7.95685 7.0512C7.56026 7.45628 7.02236 7.68385 6.46149 7.68385ZM2.98976 10.2279C3.33865 9.60166 3.84368 9.081 4.45347 8.71882C5.06327 8.35664 5.75609 8.16584 6.46149 8.16584C7.16689 8.16584 7.85971 8.35664 8.46951 8.71882C9.0793 9.081 9.58433 9.60166 9.93322 10.2279C8.96173 11.0642 7.73206 11.523 6.46149 11.523C5.19092 11.523 3.96125 11.0642 2.98976 10.2279Z" fill="black"/>
</svg>
