<svg width="13" height="13" viewBox="0 0 13 13" fill="none" xmlns="http://www.w3.org/2000/svg">
<path d="M12.3356 6.00385C12.3362 5.00502 12.0927 4.02182 11.6271 3.14345C11.1615 2.26508 10.4886 1.51932 9.66943 0.973824C8.85024 0.428323 7.91067 0.100341 6.93595 0.0196245C5.96124 -0.0610917 4.98221 0.108013 4.08768 0.5116C3.19315 0.915186 2.41141 1.54049 1.81338 2.33078C1.21535 3.12107 0.819945 4.05136 0.663031 5.03725C0.506116 6.02314 0.592658 7.03345 0.914805 7.97653C1.23695 8.91962 1.78451 9.76564 2.50782 10.4379C2.52268 10.4568 2.54055 10.473 2.56069 10.4859C3.63551 11.4638 5.02475 12.0042 6.46418 12.0042C7.90362 12.0042 9.29285 11.4638 10.3677 10.4859L10.4147 10.4379C11.0204 9.8769 11.5043 9.19249 11.8352 8.42878C12.166 7.66506 12.3365 6.83899 12.3356 6.00385ZM1.05686 6.00385C1.05679 5.09659 1.27566 4.2033 1.69411 3.40301C2.11256 2.60273 2.71768 1.92013 3.45594 1.41561C4.19419 0.911095 5.04281 0.600216 5.92672 0.510482C6.81062 0.420748 7.70256 0.554926 8.5236 0.901144C9.34464 1.24736 10.0695 1.79495 10.634 2.49544C11.1985 3.19594 11.5852 4.02775 11.76 4.91728C11.9348 5.8068 11.8922 6.72662 11.636 7.59533C11.3798 8.46405 10.918 9.25488 10.2913 9.89785C9.70797 8.89969 8.77257 8.16757 7.67723 7.85185C8.18592 7.57485 8.58934 7.13211 8.82337 6.59402C9.0574 6.05593 9.1086 5.45338 8.96883 4.88215C8.82906 4.31093 8.50634 3.80382 8.05198 3.44145C7.59763 3.07908 7.03771 2.88225 6.46125 2.88225C5.88478 2.88225 5.32487 3.07908 4.87051 3.44145C4.41615 3.80382 4.09344 4.31093 3.95367 4.88215C3.81389 5.45338 3.86509 6.05593 4.09912 6.59402C4.33315 7.13211 4.73658 7.57485 5.24526 7.85185C4.14992 8.16757 3.21452 8.89969 2.63118 9.89785C1.62357 8.86311 1.05761 7.46326 1.05686 6.00385ZM6.46125 7.68385C6.04299 7.68385 5.63412 7.55717 5.28635 7.31983C4.93858 7.08248 4.66752 6.74514 4.50746 6.35045C4.3474 5.95576 4.30552 5.52146 4.38712 5.10246C4.46872 4.68346 4.67013 4.29858 4.96589 3.9965C5.26164 3.69442 5.63845 3.4887 6.04868 3.40536C6.4589 3.32201 6.88411 3.36479 7.27053 3.52827C7.65695 3.69176 7.98723 3.96861 8.2196 4.32382C8.45198 4.67903 8.57601 5.09665 8.57601 5.52385C8.57601 6.09672 8.3532 6.64612 7.95661 7.0512C7.56001 7.45628 7.02211 7.68385 6.46125 7.68385ZM2.98952 10.2279C3.33841 9.60166 3.84343 9.081 4.45323 8.71882C5.06302 8.35664 5.75584 8.16584 6.46125 8.16584C7.16665 8.16584 7.85947 8.35664 8.46926 8.71882C9.07906 9.081 9.58408 9.60166 9.93298 10.2279C8.96149 11.0642 7.73181 11.523 6.46125 11.523C5.19068 11.523 3.961 11.0642 2.98952 10.2279Z" fill="black"/>
</svg>
