<svg width="37" height="32" viewBox="0 0 37 32" fill="none" xmlns="http://www.w3.org/2000/svg">
<path d="M34.125 18.3502H7.875L16.5113 26.9865C16.7573 27.2305 16.9526 27.5208 17.0858 27.8407C17.2191 28.1606 17.2877 28.5037 17.2877 28.8502C17.2877 29.1967 17.2191 29.5398 17.0858 29.8597C16.9526 30.1796 16.7573 30.4699 16.5113 30.714C16.0194 31.2029 15.3541 31.4773 14.6606 31.4773C13.9671 31.4773 13.3018 31.2029 12.81 30.714L1.54875 19.4265C0.562832 18.4464 0.00586107 17.1154 0 15.7252C0.0127748 14.3442 0.569217 13.0238 1.54875 12.0502L12.81 0.762712C13.0548 0.519686 13.345 0.327246 13.6641 0.196379C13.9832 0.0655136 14.325 -0.00121498 14.6699 3.8147e-06C15.0148 0.00122261 15.3561 0.0703659 15.6743 0.203484C15.9925 0.336601 16.2813 0.53109 16.5244 0.775841C16.7674 1.02059 16.9598 1.31082 17.0907 1.62994C17.2216 1.94906 17.2883 2.29084 17.2871 2.63575C17.2859 2.98066 17.2167 3.32195 17.0836 3.64014C16.9505 3.95833 16.756 4.24718 16.5113 4.49021L7.875 13.1002H34.125C34.8212 13.1002 35.4889 13.3768 35.9812 13.8691C36.4734 14.3613 36.75 15.029 36.75 15.7252C36.75 16.4214 36.4734 17.0891 35.9812 17.5814C35.4889 18.0737 34.8212 18.3502 34.125 18.3502Z" fill="#D9D9D9"/>
</svg>
